<svg width="20" height="10" viewBox="0 0 20 10" fill="none" xmlns="http://www.w3.org/2000/svg">
<path d="M19.7099 0.29C19.617 0.196272 19.5064 0.121877 19.3845 0.0711088C19.2627 0.0203401 19.132 -0.00579834 18.9999 -0.00579834C18.8679 -0.00579834 18.7372 0.0203401 18.6154 0.0711088C18.4935 0.121877 18.3829 0.196272 18.2899 0.29L11.9999 6.59L7.70994 2.29C7.61698 2.19627 7.50637 2.12188 7.38452 2.07111C7.26266 2.02034 7.13195 1.9942 6.99994 1.9942C6.86793 1.9942 6.73722 2.02034 6.61536 2.07111C6.4935 2.12188 6.3829 2.19627 6.28994 2.29L0.289939 8.29C0.196211 8.38296 0.121816 8.49356 0.0710475 8.61542C0.0202789 8.73728 -0.00585938 8.86799 -0.00585938 9C-0.00585937 9.13201 0.0202789 9.26272 0.0710475 9.38458C0.121816 9.50644 0.196211 9.61704 0.289939 9.71C0.382902 9.80373 0.493503 9.87812 0.615362 9.92889C0.737222 9.97966 0.867927 10.0058 0.999939 10.0058C1.13195 10.0058 1.26266 9.97966 1.38452 9.92889C1.50637 9.87812 1.61698 9.80373 1.70994 9.71L6.99994 4.41L11.2899 8.71C11.3829 8.80373 11.4935 8.87812 11.6154 8.92889C11.7372 8.97966 11.8679 9.0058 11.9999 9.0058C12.132 9.0058 12.2627 8.97966 12.3845 8.92889C12.5064 8.87812 12.617 8.80373 12.7099 8.71L19.7099 1.71C19.8037 1.61704 19.8781 1.50644 19.9288 1.38458C19.9796 1.26272 20.0057 1.13201 20.0057 1C20.0057 0.867988 19.9796 0.737282 19.9288 0.615423C19.8781 0.493564 19.8037 0.382963 19.7099 0.29Z" fill="white"/>
</svg>
